<svg width="12" height="12" viewBox="0 0 12 12" fill="none" xmlns="http://www.w3.org/2000/svg">
<path d="M11.9375 1V9.125C11.9375 9.37364 11.8388 9.6121 11.6629 9.78791C11.4871 9.96373 11.2487 10.0625 11 10.0625C10.7514 10.0625 10.5129 9.96373 10.3371 9.78791C10.1613 9.6121 10.0625 9.37364 10.0625 9.125V3.26563L1.66331 11.6633C1.48719 11.8394 1.24832 11.9383 0.999246 11.9383C0.750174 11.9383 0.511304 11.8394 0.335184 11.6633C0.159063 11.4872 0.0601196 11.2483 0.0601196 10.9992C0.0601196 10.7501 0.159063 10.5113 0.335184 10.3352L8.7344 1.9375H2.87503C2.62639 1.9375 2.38793 1.83873 2.21211 1.66291C2.0363 1.4871 1.93753 1.24864 1.93753 1C1.93753 0.75136 2.0363 0.512903 2.21211 0.337087C2.38793 0.161272 2.62639 0.0625 2.87503 0.0625H11C11.2487 0.0625 11.4871 0.161272 11.6629 0.337087C11.8388 0.512903 11.9375 0.75136 11.9375 1Z" fill="#0EA5E9"/>
</svg>
