<svg width="161" height="160" viewBox="0 0 161 160" fill="none" xmlns="http://www.w3.org/2000/svg">
<g opacity="0.34">
<mask id="path-1-inside-1_899_1864" fill="white">
<path d="M137.069 136.569C129.464 144.173 120.405 150.166 110.433 154.189C100.46 158.213 89.7783 160.185 79.0263 159.986C68.2743 159.788 57.6726 157.425 47.8549 153.036C38.0372 148.648 29.205 142.325 21.8861 134.446C14.5673 126.567 8.91209 117.294 5.25855 107.179C1.60501 97.0653 0.0281256 86.3184 0.622141 75.581C1.21616 64.8436 3.96888 54.3362 8.71578 44.6867C13.4627 35.0373 20.1063 26.444 28.2496 19.4203L29.2946 20.6319C21.3142 27.5151 14.8034 35.9366 10.1515 45.393C5.4995 54.8494 2.80183 65.1467 2.2197 75.6694C1.63756 86.192 3.18291 96.724 6.76338 106.636C10.3438 116.548 15.8859 125.636 23.0584 133.357C30.2309 141.079 38.8864 147.275 48.5078 151.576C58.1292 155.876 68.5189 158.193 79.0558 158.387C89.5928 158.581 100.061 156.649 109.834 152.705C119.607 148.762 128.485 142.889 135.937 135.437L137.069 136.569Z"/>
</mask>
<path d="M137.069 136.569C129.464 144.173 120.405 150.166 110.433 154.189C100.46 158.213 89.7783 160.185 79.0263 159.986C68.2743 159.788 57.6726 157.425 47.8549 153.036C38.0372 148.648 29.205 142.325 21.8861 134.446C14.5673 126.567 8.91209 117.294 5.25855 107.179C1.60501 97.0653 0.0281256 86.3184 0.622141 75.581C1.21616 64.8436 3.96888 54.3362 8.71578 44.6867C13.4627 35.0373 20.1063 26.444 28.2496 19.4203L29.2946 20.6319C21.3142 27.5151 14.8034 35.9366 10.1515 45.393C5.4995 54.8494 2.80183 65.1467 2.2197 75.6694C1.63756 86.192 3.18291 96.724 6.76338 106.636C10.3438 116.548 15.8859 125.636 23.0584 133.357C30.2309 141.079 38.8864 147.275 48.5078 151.576C58.1292 155.876 68.5189 158.193 79.0558 158.387C89.5928 158.581 100.061 156.649 109.834 152.705C119.607 148.762 128.485 142.889 135.937 135.437L137.069 136.569Z" fill="#D9D9D9" stroke="#8F7237" stroke-width="2.5" mask="url(#path-1-inside-1_899_1864)"/>
</g>
<g opacity="0.34">
<mask id="path-2-inside-2_899_1864" fill="white">
<path d="M42.7015 9.49273C58.4861 1.03074 76.6535 -1.88994 94.295 1.19836C111.936 4.28665 128.031 13.2053 140.003 26.5262C151.974 39.8471 159.129 56.7997 160.322 74.6696C161.516 92.5395 156.678 110.293 146.584 125.087L145.263 124.186C155.154 109.687 159.895 92.2887 158.726 74.7762C157.556 57.2637 150.544 40.6501 138.812 27.5956C127.081 14.5412 111.308 5.80091 94.0191 2.77439C76.7305 -0.252139 58.9263 2.61012 43.4575 10.9029L42.7015 9.49273Z"/>
</mask>
<path d="M42.7015 9.49273C58.4861 1.03074 76.6535 -1.88994 94.295 1.19836C111.936 4.28665 128.031 13.2053 140.003 26.5262C151.974 39.8471 159.129 56.7997 160.322 74.6696C161.516 92.5395 156.678 110.293 146.584 125.087L145.263 124.186C155.154 109.687 159.895 92.2887 158.726 74.7762C157.556 57.2637 150.544 40.6501 138.812 27.5956C127.081 14.5412 111.308 5.80091 94.0191 2.77439C76.7305 -0.252139 58.9263 2.61012 43.4575 10.9029L42.7015 9.49273Z" fill="#8F7237" stroke="#8F7237" stroke-width="2.5" mask="url(#path-2-inside-2_899_1864)"/>
</g>
<mask id="path-3-inside-3_899_1864" fill="white">
<path d="M140.5 80C140.5 112.892 113.836 139.556 80.9442 139.556C48.0526 139.556 21.3887 112.892 21.3887 80C21.3887 47.1084 48.0526 20.4445 80.9442 20.4445C113.836 20.4445 140.5 47.1084 140.5 80ZM22.5798 80C22.5798 112.234 48.7104 138.364 80.9442 138.364C113.178 138.364 139.309 112.234 139.309 80C139.309 47.7662 113.178 21.6356 80.9442 21.6356C48.7104 21.6356 22.5798 47.7662 22.5798 80Z"/>
</mask>
<path d="M140.5 80C140.5 112.892 113.836 139.556 80.9442 139.556C48.0526 139.556 21.3887 112.892 21.3887 80C21.3887 47.1084 48.0526 20.4445 80.9442 20.4445C113.836 20.4445 140.5 47.1084 140.5 80ZM22.5798 80C22.5798 112.234 48.7104 138.364 80.9442 138.364C113.178 138.364 139.309 112.234 139.309 80C139.309 47.7662 113.178 21.6356 80.9442 21.6356C48.7104 21.6356 22.5798 47.7662 22.5798 80Z" stroke="#8F7237" stroke-width="4" stroke-linecap="round" stroke-dasharray="5 8" mask="url(#path-3-inside-3_899_1864)"/>
<path d="M143.803 51.3614C145.071 50.7877 146.569 51.3495 147.098 52.6368C153.693 68.6875 154.269 86.5857 148.718 103.027C148.273 104.346 146.815 105.003 145.513 104.512C144.21 104.021 143.558 102.568 143.999 101.248C149.082 86.0592 148.551 69.5462 142.503 54.7155C141.977 53.4268 142.535 51.935 143.803 51.3614Z" fill="#8F7237"/>
<path d="M117.082 20.9305C117.815 19.7473 119.371 19.3785 120.528 20.1522C128.557 25.5222 135.424 32.4533 140.719 40.5321C141.482 41.6961 141.098 43.2486 139.908 43.9703C138.718 44.6921 137.172 44.3094 136.406 43.1474C131.528 35.7464 125.228 29.3873 117.873 24.4398C116.718 23.663 116.35 22.1138 117.082 20.9305Z" fill="#8F7237"/>
<path d="M65.052 147.741C64.7426 149.098 63.39 149.951 62.0447 149.595C47.3239 145.691 34.2174 137.218 24.6152 125.397C23.7377 124.317 23.9607 122.733 25.071 121.894C26.1813 121.055 27.7581 121.278 28.6385 122.356C37.5212 133.233 49.6018 141.043 63.1662 144.678C64.5105 145.038 65.3615 146.384 65.052 147.741Z" fill="#8F7237"/>
<path d="M16.8505 107.861C15.5755 108.419 14.085 107.839 13.5719 106.545C7.95676 92.3882 6.97567 76.8123 10.7701 62.0629C11.1168 60.715 12.5227 59.9526 13.8577 60.3463C15.1926 60.74 15.9506 62.1405 15.6074 63.4893C12.1445 77.0987 13.0488 91.4555 18.192 104.523C18.7018 105.818 18.1254 107.302 16.8505 107.861Z" fill="#8F7237"/>
<path d="M19.9986 45.8378C18.7867 45.1535 18.3552 43.6137 19.0815 42.4265C22.3048 37.1576 26.1929 32.3252 30.6497 28.0486C31.6539 27.085 33.2503 27.1769 34.1782 28.2143C35.1061 29.2516 35.0137 30.8413 34.0121 31.8075C29.9627 35.7137 26.4218 40.1146 23.473 44.9063C22.7436 46.0916 21.2105 46.5221 19.9986 45.8378Z" fill="#8F7237"/>
<path d="M46.4915 19.4121C45.8103 18.1984 46.2401 16.6581 47.4768 16.0198C56.579 11.3217 66.5883 8.61525 76.8375 8.09321C87.0867 7.57118 97.3191 9.2466 106.852 12.9956C108.147 13.505 108.731 14.9936 108.176 16.2702C107.622 17.5468 106.139 18.1275 104.843 17.6215C96.0243 14.1802 86.5668 12.6442 77.0939 13.1267C67.6209 13.6092 58.3684 16.0982 49.9453 20.4177C48.7069 21.0528 47.1728 20.6257 46.4915 19.4121Z" fill="#8F7237"/>
<path d="M140.762 114.583C141.969 115.276 142.39 116.819 141.655 118.001C134.963 128.771 125.535 137.597 114.314 143.566C103.093 149.535 90.5058 152.42 77.8344 151.951C76.4436 151.899 75.3994 150.688 75.4996 149.3C75.5998 147.912 76.8064 146.873 78.1973 146.92C89.9222 147.324 101.564 144.64 111.947 139.116C122.331 133.593 131.063 125.439 137.281 115.491C138.018 114.31 139.555 113.891 140.762 114.583Z" fill="#8F7237"/>
<path d="M108.945 51.5556L102.722 57.7778M102.722 57.7778L112.056 67.1111L101.167 78L91.8336 68.6667M102.722 57.7778L91.8336 68.6667M79.0469 81.4533C80.6533 83.0384 81.9303 84.9255 82.8044 87.006C83.6785 89.0866 84.1323 91.3195 84.1399 93.5762C84.1475 95.8329 83.7085 98.0688 82.8484 100.155C81.9883 102.242 80.724 104.137 79.1283 105.733C77.5325 107.329 75.6369 108.593 73.5505 109.453C71.4642 110.313 69.2283 110.752 66.9716 110.745C64.7149 110.737 62.4819 110.283 60.4014 109.409C58.3208 108.535 56.4337 107.258 54.8487 105.652C51.7318 102.424 50.0071 98.1021 50.0461 93.6156C50.085 89.1291 51.8846 84.8374 55.0571 81.6649C58.2297 78.4924 62.5214 76.6928 67.0078 76.6538C71.4943 76.6148 75.8166 78.3395 79.0438 81.4565L79.0469 81.4533ZM79.0469 81.4533L91.8336 68.6667" stroke="#8F7237" stroke-width="2" stroke-linecap="round" stroke-linejoin="round"/>
</svg>
