<svg width="53" height="64" viewBox="0 0 53 64" fill="none" xmlns="http://www.w3.org/2000/svg">
<path d="M9.17787 57.4546C13.4076 55.8633 17.3399 53.779 20.8012 51.263C23.947 48.9769 26.7188 46.3357 29.0331 43.4187C31.5029 40.2999 33.4679 36.8465 34.874 33.1479C36.2892 29.4313 36.0436 25.6867 34.189 22.6037C32.2487 19.3801 28.7334 17.3776 25.0242 17.3776C22.924 17.3776 20.9049 18.0187 19.181 19.2346C17.2971 20.5628 15.8098 22.5577 14.8791 25.0047C12.9366 30.1133 7.83481 34.2181 0.896423 36.4097M2.56398 47.1889C12.9907 44.3996 22.9487 37.9091 27.0906 27.0277M48.7869 49.36C46.9773 48.5733 44.7712 47.3728 43.6219 45.3421C42.2518 42.9155 42.7656 39.6869 43.3628 35.9448C44.1988 30.6906 45.2444 24.1516 41.0823 17.5538C38.0965 12.8156 33.238 9.72487 27.7463 9.07097C21.9955 8.38642 16.274 10.4784 12.051 14.8079C10.1942 16.7135 9.1283 18.7365 8.1886 20.5219C6.70583 23.3342 5.45516 25.6918 1.2412 27.2295M18.408 63.1539C18.2751 62.2292 18.6965 61.3148 19.4536 60.8908C20.8936 60.0836 22 59.371 22.8924 58.7962C26.561 56.431 27.4331 56.4974 30.0381 58.7911C30.6668 59.348 31.4984 60.0811 32.6296 60.9393C33.2831 61.4374 33.6008 62.3135 33.4341 63.1667M51.011 41.623C50.3237 40.6345 50.664 38.5042 51.0921 35.8094C51.7952 31.4007 52.7529 25.3649 50.326 17.8935C47.4889 9.17825 39.1308 2.59836 29.0308 1.13219C27.6607 0.935506 26.2861 0.833334 24.9183 0.833334C17.5112 0.833334 10.3181 3.78356 5.23207 10.0161C3.94986 11.6125 3.15889 12.7671 2.39272 14.7262M34.8785 47.5644C36.305 50.3358 38.581 52.7062 41.7471 54.7036" stroke="white" stroke-width="1.25" stroke-linecap="round"/>
</svg>
