<svg width="25" height="24" viewBox="0 0 25 24" fill="none" xmlns="http://www.w3.org/2000/svg">
<path d="M22.6398 19.6875C21.3544 17.4316 19.3474 15.6738 16.9417 14.6972C18.138 13.7999 19.0217 12.549 19.4676 11.1216C19.9135 9.69424 19.8989 8.16274 19.426 6.74407C18.9531 5.3254 18.0459 4.09148 16.8327 3.21709C15.6196 2.34271 14.1621 1.87219 12.6667 1.87219C11.1713 1.87219 9.71375 2.34271 8.50061 3.21709C7.28747 4.09148 6.38019 5.3254 5.9073 6.74407C5.43441 8.16274 5.41988 9.69424 5.86576 11.1216C6.31164 12.549 7.19534 13.7999 8.39167 14.6972C5.98597 15.6738 3.9789 17.4316 2.69354 19.6875C2.6139 19.8156 2.56081 19.9583 2.53745 20.1073C2.51408 20.2563 2.52091 20.4085 2.55753 20.5548C2.59415 20.7011 2.65981 20.8385 2.75061 20.9589C2.8414 21.0794 2.95548 21.1803 3.08607 21.2557C3.21665 21.3312 3.36107 21.3796 3.51074 21.3981C3.66041 21.4166 3.81228 21.4049 3.95731 21.3635C4.10234 21.3222 4.23758 21.2521 4.35499 21.1574C4.47239 21.0628 4.56956 20.9455 4.64073 20.8125C6.33948 17.8763 9.33948 16.125 12.6667 16.125C15.9939 16.125 18.9939 17.8772 20.6926 20.8125C20.8468 21.0605 21.0915 21.2388 21.3748 21.3097C21.6581 21.3806 21.9579 21.3386 22.2107 21.1925C22.4636 21.0464 22.6497 20.8077 22.7298 20.5268C22.8099 20.246 22.7776 19.945 22.6398 19.6875ZM7.79167 9C7.79167 8.03582 8.07758 7.09329 8.61325 6.2916C9.14893 5.48991 9.9103 4.86507 10.8011 4.49609C11.6919 4.12712 12.6721 4.03057 13.6177 4.21868C14.5634 4.40678 15.432 4.87108 16.1138 5.55286C16.7956 6.23464 17.2599 7.10328 17.448 8.04894C17.6361 8.9946 17.5396 9.9748 17.1706 10.8656C16.8016 11.7564 16.1768 12.5177 15.3751 13.0534C14.5734 13.5891 13.6309 13.875 12.6667 13.875C11.3742 13.8735 10.1351 13.3594 9.22117 12.4455C8.30725 11.5316 7.79316 10.2925 7.79167 9Z" fill="#666666"/>
</svg>
