<svg width="25" height="24" viewBox="0 0 25 24" fill="none" xmlns="http://www.w3.org/2000/svg">
<path d="M21.4834 5.87249L13.2334 1.35655C12.9577 1.20481 12.6481 1.12524 12.3334 1.12524C12.0187 1.12524 11.7091 1.20481 11.4334 1.35655L3.18337 5.87249C2.88817 6.03401 2.64188 6.272 2.47033 6.56149C2.29878 6.85098 2.2083 7.1813 2.20837 7.5178V16.4822C2.2083 16.8187 2.29878 17.149 2.47033 17.4385C2.64188 17.728 2.88817 17.966 3.18337 18.1275L11.4334 22.6434C11.709 22.7953 12.0186 22.875 12.3334 22.875C12.6481 22.875 12.9577 22.7953 13.2334 22.6434L21.4834 18.1275C21.7786 17.966 22.0249 17.728 22.1964 17.4385C22.368 17.149 22.4585 16.8187 22.4584 16.4822V7.5178C22.4585 7.1813 22.368 6.85098 22.1964 6.56149C22.0249 6.272 21.7786 6.03401 21.4834 5.87249ZM12.3334 3.42843L19.0834 7.12499L17.0743 8.22468L10.3243 4.52905L12.3334 3.42843ZM12.3334 10.8187L5.58337 7.12499L7.97962 5.81249L14.7296 9.50718L12.3334 10.8187ZM4.45837 9.07405L11.2084 12.7678V19.9556L4.45837 16.26V9.07405ZM13.4584 19.9556V12.7678L15.7084 11.5369V14.25C15.7084 14.5484 15.8269 14.8345 16.0379 15.0455C16.2489 15.2565 16.535 15.375 16.8334 15.375C17.1317 15.375 17.4179 15.2565 17.6289 15.0455C17.8398 14.8345 17.9584 14.5484 17.9584 14.25V10.305L20.2084 9.07405V16.26L13.4584 19.9556Z" fill="#666666"/>
</svg>
